# xmcd
#
# Track frame offsets:
#	150
#	15792
#	30942
#	44727
#	65112
#	86510
#	103002
#	119940
#	136377
#	151285
#
# Disc length: 2196 seconds
#
# Revision: 3
# Processed by: cddbd v1.5.2PL0 Copyright (c) Steve Scherf et al.
# Submitted via: audiograbber 1.83.01
#
DISCID=8208920a
DTITLE=Lari White - Wishes
DYEAR=1994
DGENRE=Oldies
TTITLE0=That's My Baby
TTITLE1=Somebody's Fool
TTITLE2=Wishes
TTITLE3=Now I Know
TTITLE4=If I'm Not Already Crazy
TTITLE5=That's How You Know (When You're In Love)
TTITLE6=When It Rains
TTITLE7=Go On
TTITLE8=It's Love
TTITLE9=If You Only Knew
EXTD=YEAR: 1994
EXTT0=
EXTT1=
EXTT2=
EXTT3=
EXTT4=
EXTT5=
EXTT6=
EXTT7=
EXTT8=
EXTT9=
PLAYORDER=
